<svg width="33" height="40" viewBox="0 0 33 40" fill="none" xmlns="http://www.w3.org/2000/svg">
<path d="M27.4713 0H9.87141C8.75654 0.000914467 7.67348 0.369562 6.79193 1.04818C5.91038 1.7268 5.28015 2.67704 5 3.75H22.9142C24.4562 3.75 25.9351 4.3591 27.0255 5.44329C28.1159 6.52749 28.7285 7.99798 28.7285 9.53126V33.3508L30.457 34.7258C30.6713 34.8964 30.9358 34.9925 31.2102 34.9996C31.4846 35.0066 31.7538 34.9242 31.9766 34.7649C32.1413 34.644 32.2746 34.4858 32.3656 34.3035C32.4566 34.1212 32.5026 33.92 32.4999 33.7164V5.00001C32.4999 3.67392 31.9701 2.40215 31.0271 1.46447C30.084 0.526785 28.805 0 27.4713 0Z" fill="white"/>
<path d="M21.5872 5.83331H5.07947C3.73235 5.83331 2.4404 6.36653 1.48785 7.31568C0.535291 8.26482 0.000150155 9.55213 0.000150155 10.8944V38.7004C-0.00298052 38.9055 0.0428842 39.1085 0.13396 39.2924C0.225035 39.4764 0.35871 39.6362 0.523955 39.7585C0.753515 39.9246 1.03229 40.0093 1.31581 39.9992C1.59932 39.989 1.87125 39.8845 2.08823 39.7024L13.3334 30.2626L24.5785 39.6984C24.794 39.8794 25.0639 39.9837 25.3455 39.995C25.6272 40.0063 25.9046 39.924 26.134 39.7609C26.3013 39.6388 26.437 39.4787 26.5296 39.2938C26.6222 39.1089 26.6692 38.9047 26.6666 38.6981V10.8944C26.6666 9.55213 26.1314 8.26482 25.1789 7.31568C24.2263 6.36653 22.9344 5.83331 21.5872 5.83331Z" fill="white"/>
</svg>
