<svg width="125" height="75" viewBox="0 0 125 75" fill="none" xmlns="http://www.w3.org/2000/svg">
<g clip-path="url(#clip0_0_311)">
<rect width="104.167" height="9.375" transform="translate(9.89587)" fill="#984343"/>
</g>
<rect width="104.167" height="9.375" transform="translate(10.4167 65.625)" fill="#984343"/>
<rect x="9.89587" y="9.375" width="104.167" height="56.25" fill="#BF6060"/>
<rect x="114.062" y="56.25" width="5.72917" height="9.375" fill="#984343"/>
<rect width="5.20833" height="9.375" transform="matrix(-1 0 0 1 10.4167 56.25)" fill="#984343"/>
<rect x="114.062" y="9.375" width="5.20833" height="9.375" fill="#984343"/>
<rect width="5.20833" height="9.375" transform="matrix(-1 0 0 1 10.4167 9.375)" fill="#984343"/>
<rect x="119.271" y="18.75" width="5.72917" height="37.5" fill="#984343"/>
<rect width="5.20833" height="37.5" transform="matrix(-1 0 0 1 5.20831 18.75)" fill="#984343"/>
<rect x="5.20831" y="18.75" width="4.6875" height="37.5" fill="#CF7272"/>
<rect x="114.062" y="18.75" width="5.20833" height="37.5" fill="#B05353"/>
<rect x="114.062" y="18.75" width="5.20833" height="37.5" fill="#B05353"/>
<rect x="82.8125" y="56.25" width="31.25" height="9.375" fill="#B05353"/>
<path d="M9.89587 9.375H41.1459V18.75H9.89587V9.375Z" fill="#CF7272"/>
<defs>
<clipPath id="clip0_0_311">
<rect width="104.167" height="9.375" fill="white" transform="translate(9.89587)"/>
</clipPath>
</defs>
</svg>
