<svg width="26" height="45" viewBox="0 0 26 45" fill="none" xmlns="http://www.w3.org/2000/svg">
<path d="M5.67024 45C4.48921 44.998 3.339 44.6271 2.38369 43.9403C1.64631 43.4134 1.0458 42.721 0.631435 41.9201C0.217073 41.1192 0.000678146 40.2324 1.58433e-05 39.3327C-0.00264776 38.2751 0.330608 37.2433 0.952743 36.3831C1.57488 35.5229 2.45447 34.8776 3.46736 34.5384L8.63282 32.8187C8.96054 32.7081 9.24477 32.4983 9.44527 32.219C9.64577 31.9398 9.75238 31.6052 9.75 31.2628V6.02624C9.74853 5.31002 9.98821 4.6137 10.4312 4.04713C10.8742 3.48057 11.4954 3.07601 12.1966 2.89729L23.205 0.0706917C23.5352 -0.0139613 23.8806 -0.0227099 24.2148 0.0451161C24.549 0.112942 24.863 0.255542 25.1328 0.461984C25.4026 0.668426 25.6211 0.933229 25.7714 1.23609C25.9217 1.53896 25.9999 1.87184 26 2.20923V8.01009C26.0019 8.72851 25.7611 9.42698 25.3158 9.99459C24.8705 10.5622 24.2463 10.9664 23.5422 11.1431L14.234 13.4664C13.8785 13.5579 13.5641 13.7641 13.3406 14.0523C13.1171 14.3405 12.9972 14.6943 13 15.0575V39.3749C13.0027 40.3903 12.6828 41.3808 12.0854 42.2065C11.488 43.0322 10.6433 43.6513 9.67079 43.9764L7.49024 44.7027C6.90398 44.8991 6.28923 44.9995 5.67024 45Z" fill="white"/>
</svg>
